<svg xmlns="http://www.w3.org/2000/svg" viewBox="0 0 520 360" fill="none" role="img" aria-label="Search engine results with a ranked first position">
  <defs>
    <linearGradient id="serpGlow" x1="0" y1="0" x2="1" y2="1">
      <stop offset="0%" stop-color="#0079ff" stop-opacity="0.35" />
      <stop offset="100%" stop-color="#0079ff" stop-opacity="0" />
    </linearGradient>
    <linearGradient id="serpBar" x1="0" y1="0" x2="1" y2="0">
      <stop offset="0%" stop-color="#0079ff" />
      <stop offset="100%" stop-color="#66b4ff" />
    </linearGradient>
  </defs>

  <rect x="18" y="18" width="484" height="324" rx="26" fill="#141414" stroke="#ffffff" stroke-opacity="0.08" />
  <circle cx="430" cy="86" r="120" fill="url(#serpGlow)" />

  <!-- search bar -->
  <rect x="46" y="48" width="428" height="46" rx="23" fill="#1d1d1d" stroke="#ffffff" stroke-opacity="0.1" />
  <circle cx="76" cy="71" r="9" stroke="#0079ff" stroke-width="2.5" />
  <path d="M83 78l9 9" stroke="#0079ff" stroke-width="2.5" stroke-linecap="round" />
  <rect x="102" y="65" width="150" height="8" rx="4" fill="#ffffff" fill-opacity="0.55" />
  <rect x="260" y="65" width="70" height="8" rx="4" fill="#ffffff" fill-opacity="0.22" />

  <!-- rank 1 result, highlighted -->
  <rect x="46" y="116" width="428" height="76" rx="18" fill="#0079ff" fill-opacity="0.14" stroke="#0079ff" stroke-opacity="0.55" />
  <rect x="62" y="134" width="34" height="34" rx="12" fill="url(#serpBar)" />
  <path d="M74 156v-13m0 0l-5 5m5-5l5 5" stroke="#ffffff" stroke-width="2.4" stroke-linecap="round" stroke-linejoin="round" />
  <rect x="110" y="134" width="196" height="10" rx="5" fill="#ffffff" fill-opacity="0.9" />
  <rect x="110" y="154" width="286" height="7" rx="3.5" fill="#ffffff" fill-opacity="0.35" />
  <rect x="110" y="168" width="212" height="7" rx="3.5" fill="#ffffff" fill-opacity="0.2" />
  <rect x="410" y="140" width="48" height="22" rx="11" fill="#0079ff" />
  <text x="434" y="155" text-anchor="middle" font-family="system-ui, sans-serif" font-size="12" font-weight="700" fill="#ffffff">#1</text>

  <!-- other results -->
  <g fill="#ffffff">
    <rect x="62" y="212" width="150" height="9" rx="4.5" fill-opacity="0.3" />
    <rect x="62" y="230" width="300" height="6" rx="3" fill-opacity="0.13" />
    <rect x="62" y="244" width="240" height="6" rx="3" fill-opacity="0.09" />

    <rect x="62" y="278" width="124" height="9" rx="4.5" fill-opacity="0.22" />
    <rect x="62" y="296" width="272" height="6" rx="3" fill-opacity="0.1" />
    <rect x="62" y="310" width="196" height="6" rx="3" fill-opacity="0.07" />
  </g>

  <!-- climbing trend -->
  <path d="M400 306l22-26 20 14 34-44" stroke="#0079ff" stroke-width="3" stroke-linecap="round" stroke-linejoin="round" />
  <circle cx="476" cy="250" r="5" fill="#0079ff" />
</svg>
